# xmcd
#
# Track frame offsets: 
#        182
#        11195
#        26322
#        38815
#        51375
#        67277
#        80755
#        93035
#        107425
#        120285
#        134925
#
# Disc length: 1970 seconds
#
# Revision: 4
# Processed by: cddbd v1.5PL3 Copyright (c) Steve Scherf et al.
# Submitted via: ExactAudioCopy v0.90b4
#
DISCID=9307b00b
DTITLE=Jeff Carson - Jeff Carson
DYEAR=1995
DGENRE=Country
TTITLE0=Yeah Buddy
TTITLE1=Not On Your Love
TTITLE2=Get A Guitar
TTITLE3=Definite Possibilities
TTITLE4=The Car
TTITLE5=Betty's Takin' Judo
TTITLE6=Preachin' To The Choir
TTITLE7=Me Too
TTITLE8=If I Ain't Got You
TTITLE9=That Last Mile
TTITLE10=Holdin' Onto Something
EXTD=YEAR: 1995 ID3G:   2
EXTT0=
EXTT1=
EXTT2=
EXTT3=
EXTT4=
EXTT5=
EXTT6=
EXTT7=
EXTT8=
EXTT9=
EXTT10=
PLAYORDER=
